<mxfile host="app.diagrams.net" agent="Mozilla/5.0 (Windows NT 10.0; Win64; x64) AppleWebKit/537.36 (KHTML, like Gecko) Chrome/134.0.0.0 Safari/537.36" version="26.1.1">
  <diagram name="PÃ¡gina-1" id="2aatellYrtwU3QzYVMDz">
    <mxGraphModel dx="538" dy="313" grid="1" gridSize="10" guides="1" tooltips="1" connect="1" arrows="1" fold="1" page="1" pageScale="1" pageWidth="827" pageHeight="1169" math="0" shadow="0">
      <root>
        <mxCell id="0" />
        <mxCell id="1" parent="0" />
        <mxCell id="YZfhHn6qCokrIwdxus87-1" value="Cocinero" style="swimlane;whiteSpace=wrap;html=1;" vertex="1" parent="1">
          <mxGeometry x="60" y="30" width="200" height="205" as="geometry" />
        </mxCell>
        <mxCell id="YZfhHn6qCokrIwdxus87-2" value="" style="endArrow=none;html=1;rounded=0;" edge="1" parent="YZfhHn6qCokrIwdxus87-1">
          <mxGeometry width="50" height="50" relative="1" as="geometry">
            <mxPoint y="140" as="sourcePoint" />
            <mxPoint x="200" y="140" as="targetPoint" />
          </mxGeometry>
        </mxCell>
        <mxCell id="YZfhHn6qCokrIwdxus87-3" value="+ IdCoci&lt;div&gt;+ Nombre&lt;/div&gt;&lt;div&gt;+ Nacionalidad&lt;/div&gt;" style="text;html=1;align=left;verticalAlign=middle;resizable=0;points=[];autosize=1;strokeColor=none;fillColor=none;fontSize=15;" vertex="1" parent="YZfhHn6qCokrIwdxus87-1">
          <mxGeometry x="10" y="30" width="120" height="70" as="geometry" />
        </mxCell>
        <mxCell id="YZfhHn6qCokrIwdxus87-37" value="+l ibrosEscritos&lt;div&gt;+ recetasCreadas&lt;/div&gt;" style="text;html=1;align=left;verticalAlign=middle;resizable=0;points=[];autosize=1;strokeColor=none;fillColor=none;fontSize=15;" vertex="1" parent="YZfhHn6qCokrIwdxus87-1">
          <mxGeometry x="10" y="150" width="140" height="50" as="geometry" />
        </mxCell>
        <mxCell id="YZfhHn6qCokrIwdxus87-38" value="Creador" style="swimlane;whiteSpace=wrap;html=1;" vertex="1" parent="1">
          <mxGeometry x="450" y="30" width="200" height="205" as="geometry" />
        </mxCell>
        <mxCell id="YZfhHn6qCokrIwdxus87-39" value="" style="endArrow=none;html=1;rounded=0;" edge="1" parent="YZfhHn6qCokrIwdxus87-38">
          <mxGeometry width="50" height="50" relative="1" as="geometry">
            <mxPoint y="140" as="sourcePoint" />
            <mxPoint x="200" y="140" as="targetPoint" />
          </mxGeometry>
        </mxCell>
        <mxCell id="YZfhHn6qCokrIwdxus87-40" value="+ IdCoci&lt;div&gt;+ Nombre&lt;/div&gt;&lt;div&gt;+ Nacionalidad&lt;/div&gt;" style="text;html=1;align=left;verticalAlign=middle;resizable=0;points=[];autosize=1;strokeColor=none;fillColor=none;fontSize=15;" vertex="1" parent="YZfhHn6qCokrIwdxus87-38">
          <mxGeometry x="10" y="30" width="120" height="70" as="geometry" />
        </mxCell>
        <mxCell id="YZfhHn6qCokrIwdxus87-41" value="+l ibrosEscritos&lt;div&gt;+ recetasCreadas&lt;/div&gt;" style="text;html=1;align=left;verticalAlign=middle;resizable=0;points=[];autosize=1;strokeColor=none;fillColor=none;fontSize=15;" vertex="1" parent="YZfhHn6qCokrIwdxus87-38">
          <mxGeometry x="10" y="150" width="140" height="50" as="geometry" />
        </mxCell>
      </root>
    </mxGraphModel>
  </diagram>
</mxfile>
